HIERARCHY
ROOT Hips
{
	OFFSET 0.000000 0.000000 0.000000
	CHANNELS 6 Xposition Yposition Zposition Zrotation Yrotation Xrotation 
	JOINT LHipJoint
	{
		OFFSET 0.000000 0.000000 0.000000
		CHANNELS 3 Zrotation Yrotation Xrotation
		JOINT LeftUpLeg
		{
			OFFSET 1.363060 -1.794630 0.839290
			CHANNELS 3 Zrotation Yrotation Xrotation
			JOINT LeftLeg
			{
				OFFSET 2.448110 -6.726130 0.000000
				CHANNELS 3 Zrotation Yrotation Xrotation
				JOINT LeftFoot
				{
					OFFSET 2.562200 -7.039590 0.000000
					CHANNELS 3 Zrotation Yrotation Xrotation
					JOINT LeftToeBase
					{
						OFFSET 0.157640 -0.433110 2.322550
						CHANNELS 3 Zrotation Yrotation Xrotation
						End Site
						{
							OFFSET 0.000000 0.000000 0.000000
						}
					}
				}
			}
		}
	}
	JOINT RHipJoint
	{
		OFFSET 0.000000 0.000000 0.000000
		CHANNELS 3 Zrotation Yrotation Xrotation
		JOINT RightUpLeg
		{
			OFFSET -1.305520 -1.794630 0.839290
			CHANNELS 3 Zrotation Yrotation Xrotation
			JOINT RightLeg
			{
				OFFSET -2.542530 -6.985550 0.000000
				CHANNELS 3 Zrotation Yrotation Xrotation
				JOINT RightFoot
				{
					OFFSET -2.568260 -7.056230 0.000000
					CHANNELS 3 Zrotation Yrotation Xrotation
					JOINT RightToeBase
					{
						OFFSET -0.164730 -0.452590 2.363150
						CHANNELS 3 Zrotation Yrotation Xrotation
						End Site
						{
							OFFSET 0.000000 0.000000 0.000000
						}
					}
				}
			}
		}
	}
	JOINT LowerBack
	{
		OFFSET 0.000000 0.000000 0.000000
		CHANNELS 3 Zrotation Yrotation Xrotation
		JOINT Spine
		{
			OFFSET 0.028270 2.035590 -0.193380
			CHANNELS 3 Zrotation Yrotation Xrotation
			JOINT Spine1
			{
				OFFSET 0.056720 2.048850 -0.042750
				CHANNELS 3 Zrotation Yrotation Xrotation
				JOINT Neck
				{
					OFFSET 0.000000 0.000000 0.000000
					CHANNELS 3 Zrotation Yrotation Xrotation
					JOINT Neck1
					{
						OFFSET -0.054170 1.746240 0.172020
						CHANNELS 3 Zrotation Yrotation Xrotation
						JOINT Head
						{
							OFFSET 0.104070 1.761360 -0.123970
							CHANNELS 3 Zrotation Yrotation Xrotation
							End Site
							{
								OFFSET 0.000000 0.000000 0.000000
							}
						}
					}
				}
				JOINT LeftShoulder
				{
					OFFSET 0.000000 0.000000 0.000000
					CHANNELS 3 Zrotation Yrotation Xrotation
					JOINT LeftArm
					{
						OFFSET 3.362410 1.200890 -0.311210
						CHANNELS 3 Zrotation Yrotation Xrotation
						JOINT LeftForeArm
						{
							OFFSET 4.983000 -0.000000 -0.000000
							CHANNELS 3 Zrotation Yrotation Xrotation
							JOINT LeftHand
							{
								OFFSET 3.483560 -0.000000 -0.000000
								CHANNELS 3 Zrotation Yrotation Xrotation
								JOINT LeftFingerBase
								{
									OFFSET 0.000000 0.000000 0.000000
									CHANNELS 3 Zrotation Yrotation Xrotation
									JOINT LeftHandIndex1
									{
										OFFSET 0.715260 -0.000000 -0.000000
										CHANNELS 3 Zrotation Yrotation Xrotation
										End Site
										{
											OFFSET 0.000000 0.000000 0.000000
										}
									}
								}
								JOINT LThumb
								{
									OFFSET 0.000000 0.000000 0.000000
									CHANNELS 3 Zrotation Yrotation Xrotation
									End Site
									{
										OFFSET 0.000000 0.000000 0.000000
									}
								}
							}
						}
					}
				}
				JOINT RightShoulder
				{
					OFFSET 0.000000 0.000000 0.000000
					CHANNELS 3 Zrotation Yrotation Xrotation
					JOINT RightArm
					{
						OFFSET -3.136600 1.374050 -0.404650
						CHANNELS 3 Zrotation Yrotation Xrotation
						JOINT RightForeArm
						{
							OFFSET -5.241900 -0.000000 -0.000000
							CHANNELS 3 Zrotation Yrotation Xrotation
							JOINT RightHand
							{
								OFFSET -3.444170 -0.000000 -0.000000
								CHANNELS 3 Zrotation Yrotation Xrotation
								JOINT RightFingerBase
								{
									OFFSET 0.000000 0.000000 0.000000
									CHANNELS 3 Zrotation Yrotation Xrotation
									JOINT RightHandIndex1
									{
										OFFSET -0.622530 -0.000000 -0.000000
										CHANNELS 3 Zrotation Yrotation Xrotation
										End Site
										{
											OFFSET 0.000000 0.000000 0.000000
										}
									}
								}
								JOINT RThumb
								{
									OFFSET 0.000000 0.000000 0.000000
									CHANNELS 3 Zrotation Yrotation Xrotation
									End Site
									{
										OFFSET 0.000000 0.000000 0.000000
									}
								}
							}
						}
					}
				}
			}
		}
	}
}
MOTION
Frames: 5
Frame Time: 0.008333
-1.075321 18.216176 7.862869 -0.375567 -2.078723 10.292567 -0.518434 1.902621 1.265328 -9.765618 -13.916276 -17.364081 2.015352 10.516933 31.858668 0.067598 4.076439 -13.996807 8.051900 -16.157300 -52.749300 -1.810726 -2.897694 1.373528 14.854393 5.777217 -14.787629 -0.932856 -7.135504 22.186484 -1.313973 2.817685 -11.875150 -0.000500 -0.147000 0.404000 1.968735 1.437801 -5.960803 -3.627064 0.713795 1.009391 -0.571028 1.017328 -5.445397 -4.624840 -4.017456 -18.017442 8.580008 -5.767708 24.543001 1.727100 -1.916700 8.366600 1.920988 -8.402491 1.379282 -91.311565 8.521283 23.708249 22.956766 -31.334040 -6.045382 0.718758 0.165366 8.978571 4.386384 -28.828324 -1.805100 -7.125000 0.000000 0.000000 -15.699500 1.722700 15.832200 -2.161531 9.941464 3.649236 92.591855 -10.627943 24.421122 -29.043510 36.755705 -8.427353 1.013959 -2.842844 18.582785 -5.913688 -38.080949 4.596600 7.125000 0.000000 0.000000 31.326900 -63.071300 -14.466000 
-1.075917 18.215977 7.861777 -0.362338 -2.073434 10.262252 -0.512904 1.909860 1.276976 -9.791250 -13.953559 -17.323597 2.012195 10.509502 31.847414 0.055932 4.119303 -14.025351 8.051900 -16.157300 -52.749400 -1.800199 -2.900633 1.387785 14.829945 5.780439 -14.777529 -0.936198 -7.140943 22.203877 -1.318745 2.833312 -11.892482 -0.000500 -0.145600 0.400000 1.918933 1.435305 -6.023358 -3.534930 0.720599 1.140721 -0.577664 1.018910 -5.452071 -4.649436 -4.017466 -18.011315 8.530274 -5.751676 24.528920 1.720600 -1.916900 8.362900 1.910120 -8.403290 1.368422 -91.326052 8.567971 23.793358 23.002499 -31.384263 -6.069063 0.720675 0.167516 8.935394 4.442729 -28.907944 -1.836500 -7.125000 0.000000 0.000000 -15.669400 1.638800 15.823700 -2.176366 9.939065 3.638343 92.574856 -10.629953 24.395667 -29.048194 36.755547 -8.425623 1.014297 -2.841766 18.634731 -5.894898 -38.014920 4.579700 7.125000 0.000000 0.000000 31.273600 -63.014600 -14.397300 
-1.077209 18.215977 7.859491 -0.349780 -2.074326 10.267728 -0.512346 1.907592 1.271062 -9.803611 -13.941452 -17.329604 2.007082 10.505719 31.832461 0.033994 4.185531 -14.013836 8.074100 -16.173500 -52.829300 -1.800855 -2.898302 1.382246 14.814916 5.826976 -14.781456 -0.939793 -7.150276 22.227315 -1.328499 2.865832 -11.926717 -0.001000 -0.208500 0.572800 1.897325 1.432240 -5.993121 -3.536406 0.717300 1.077776 -0.559356 1.019211 -5.443062 -4.589793 -4.005834 -17.963626 8.422559 -5.726713 24.497712 1.693300 -1.916300 8.346300 1.901782 -8.408897 1.373471 -91.320828 8.623547 23.835821 23.016032 -31.397107 -6.077929 0.722646 0.170692 8.832736 4.517261 -28.964442 -1.875500 -7.125000 0.000000 0.000000 -15.628900 1.575000 15.797900 -2.178397 9.943946 3.643477 92.602926 -10.677640 24.354404 -29.046865 36.746616 -8.415511 1.005260 -2.840533 18.712308 -6.083226 -37.797484 4.661600 7.125000 0.000000 0.000000 30.838200 -62.876800 -14.076900 
-1.078997 18.216275 7.855517 -0.332321 -2.055857 10.269263 -0.515887 1.905919 1.274916 -9.801235 -13.891840 -17.378367 2.005890 10.503322 31.821399 0.030187 4.177028 -13.934517 8.082300 -16.179400 -52.858500 -1.805638 -2.898897 1.385541 14.806007 5.872773 -14.792077 -0.942494 -7.156248 22.245943 -1.335090 2.874322 -11.982887 -0.001100 -0.214900 0.590400 1.890044 1.423549 -5.995753 -3.585509 0.701929 1.128284 -0.535169 1.014573 -5.461137 -4.548735 -4.003082 -17.977617 8.413771 -5.727955 24.465361 1.686900 -1.916900 8.340000 1.908706 -8.405949 1.370880 -91.293838 8.621103 23.869955 23.026632 -31.406916 -6.079854 0.720986 0.171502 8.777913 4.463372 -28.891489 -1.845600 -7.125000 0.000000 0.000000 -15.657700 1.650700 15.807500 -2.179443 9.941515 3.636373 92.634826 -10.653308 24.315733 -29.025412 36.731925 -8.402447 0.995400 -2.840896 18.776293 -6.258751 -37.661429 4.743800 7.125000 0.000000 0.000000 30.507000 -62.801100 -13.856500 
-1.079991 18.216673 7.853033 -0.331908 -2.034510 10.280387 -0.510907 1.907621 1.282964 -9.791221 -13.860668 -17.428572 2.005951 10.500741 31.814193 0.026981 4.167950 -13.863293 8.079800 -16.177600 -52.849600 -1.801197 -2.899488 1.395762 14.805973 5.873075 -14.829049 -0.944585 -7.160613 22.260079 -1.333480 2.861670 -11.993402 -0.000500 -0.143800 0.395100 1.877535 1.407650 -6.067233 -3.540767 0.684225 1.241718 -0.550501 1.003619 -5.468853 -4.615486 -4.020216 -18.086297 8.517137 -5.757675 24.533642 1.713600 -1.918700 8.372700 1.912660 -8.400186 1.364436 -91.299295 8.605757 23.859223 23.044609 -31.424029 -6.081042 0.716618 0.169925 8.790322 4.304071 -28.724965 -1.760200 -7.125000 0.000000 0.000000 -15.744000 1.828100 15.850100 -2.183779 9.937666 3.628104 92.606575 -10.599633 24.360829 -28.998630 36.710989 -8.392690 0.993097 -2.841506 18.756819 -6.295227 -37.698582 4.767500 7.125000 0.000000 0.000000 30.509900 -62.838600 -13.884800 
